<?xml version="1.0" encoding="utf-8"?>
<!-- Generator: Adobe Illustrator 16.0.0, SVG Export Plug-In . SVG Version: 6.00 Build 0)  -->
<!DOCTYPE svg PUBLIC "-//W3C//DTD SVG 1.1//EN" "http://www.w3.org/Graphics/SVG/1.1/DTD/svg11.dtd">
<svg version="1.1" xmlns="http://www.w3.org/2000/svg" xmlns:xlink="http://www.w3.org/1999/xlink" x="0px" y="0px" width="256px"
	 height="48.5px" viewBox="0 0 256 48.5" enable-background="new 0 0 256 48.5" xml:space="preserve">
<g id="Layer_1">
</g>
<g id="Layer_2">
</g>
<g id="Layer_3">
</g>
<g id="Layer_4">
</g>
<g id="Layer_5">
	<g>
		<path fill="#28539E" stroke="#28539E" stroke-width="0.3" stroke-miterlimit="10" d="M132.277,18.891
			c-1.009-1.574-2.729-2.574-5.479-2.574c-5.299,0-7.89,3.724-8.365,8.248c-0.468,4.449,1.259,7.998,6.632,7.998
			c2.75,0,4.677-0.974,6.017-2.549l1.596,1.7c-1.88,1.95-4.525,3.099-7.874,3.099c-6.523,0-9.467-4.099-8.82-10.248
			c0.646-6.148,4.626-10.497,11.025-10.497c3.425,0,5.778,1.149,7.248,3.099L132.277,18.891z"/>
		<path fill="#28539E" stroke="#28539E" stroke-width="0.3" stroke-miterlimit="10" d="M144.505,34.812
			c-6.224,0-9.042-4.099-8.396-10.248c0.646-6.148,4.376-10.497,10.576-10.497c6.248,0,9.042,4.324,8.394,10.497
			C154.433,30.713,150.653,34.812,144.505,34.812z M146.473,16.316c-5.049,0-7.439,3.724-7.915,8.248
			c-0.468,4.449,1.184,7.998,6.207,7.998c5.049,0,7.396-3.549,7.864-7.998C153.092,20.166,151.547,16.316,146.473,16.316z"/>
		<path fill="#28539E" stroke="#28539E" stroke-width="0.3" stroke-miterlimit="10" d="M165.767,27.563h-8.373l0.236-2.25h8.373
			L165.767,27.563z"/>
		<path fill="#28539E" stroke="#28539E" stroke-width="0.3" stroke-miterlimit="10" d="M177.104,34.812
			c-6.224,0-9.042-4.099-8.396-10.248c0.646-6.148,4.376-10.497,10.576-10.497c6.248,0,9.042,4.324,8.394,10.497
			C187.031,30.713,183.252,34.812,177.104,34.812z M179.072,16.316c-5.049,0-7.439,3.724-7.915,8.248
			c-0.468,4.449,1.184,7.998,6.207,7.998c5.049,0,7.396-3.549,7.864-7.998C185.69,20.166,184.146,16.316,179.072,16.316z"/>
		<path fill="#28539E" stroke="#28539E" stroke-width="0.3" stroke-miterlimit="10" d="M200.794,26.813h-7.099l0.224,0.25
			l-0.788,7.498h-2.375l2.127-20.245h9.248c4.299,0,6.401,2.6,6.017,6.249C207.781,24.064,205.117,26.813,200.794,26.813z
			 M201.895,16.566h-7.123l0.224,0.25l-0.788,7.498l-0.276,0.25h7.099c2.898,0,4.426-1.699,4.668-3.999
			C205.951,18.166,204.769,16.566,201.895,16.566z"/>
		<path fill="#28539E" stroke="#28539E" stroke-width="0.3" stroke-miterlimit="10" d="M235.069,16.566h-12.247l0.224,0.25
			l-0.709,6.749l-0.276,0.25h11.047l-0.236,2.249h-11.047l0.224,0.251l-0.867,8.248h-2.375l2.127-20.245h14.372L235.069,16.566z"/>
		<path fill="#28539E" stroke="#28539E" stroke-width="0.3" stroke-miterlimit="10" d="M252.944,16.566h-12.247l0.224,0.25
			l-0.71,6.749l-0.275,0.25h11.047l-0.237,2.249h-11.047l0.224,0.251l-0.866,8.248h-2.375l2.128-20.245h14.372L252.944,16.566z"/>
	</g>
	<g>
		<g>
			<path fill="#1D589E" d="M101.5,37.021H86.18c-0.621,0-1.124-0.502-1.124-1.123s0.503-1.123,1.124-1.123h15.218V5.972H57.48
				v28.802h17.67c0.621,0,1.124,0.502,1.124,1.123s-0.503,1.123-1.124,1.123H57.378c-1.183,0-2.145-0.962-2.145-2.145V5.87
				c0-1.183,0.962-2.145,2.145-2.145H101.5c1.183,0,2.145,0.962,2.145,2.145v29.006C103.646,36.059,102.683,37.021,101.5,37.021z"/>
		</g>
		<g>
			<g>
				<path fill="#1D589E" d="M94.353,47.115c-0.001,0-0.002,0-0.004,0l-27.204-0.099c-0.604-0.002-1.097-0.481-1.119-1.084
					c-0.217-6.232,2.034-7.017,2.729-7.108c0.049-0.007,0.098-0.011,0.147-0.011c3.656,0,6.36-2.426,6.626-5.847
					c-3.928-0.934-6.59-4.255-6.59-8.387l-0.003-5.945c0-5.208,3.883-9.446,8.655-9.446h0.677c0.049-0.006,0.099-0.009,0.149-0.009
					h2.378c5.209,0,9.447,3.882,9.447,8.654v13.677c0,0.413-0.227,0.793-0.59,0.989l-0.506,0.273
					c-0.164,0.088-0.347,0.135-0.534,0.135h-6.494c-0.621,0-1.124-0.502-1.124-1.124c0-0.621,0.503-1.124,1.124-1.124h5.877V17.831
					c0-3.532-3.23-6.406-7.2-6.406h-0.477c-0.049,0.006-0.099,0.009-0.149,0.009H77.59c-3.533,0-6.407,3.229-6.407,7.199
					l0.002,5.945c0,3.361,2.262,5.91,5.629,6.341c0.559,0.071,0.978,0.546,0.981,1.108l0.002,0.373c0,4.858-3.7,8.537-8.647,8.657
					c-0.196,0.18-0.841,0.983-0.89,3.715l24.979,0.091c-0.054-2.955-0.806-3.649-0.929-3.741l-0.333-0.063
					c-3.454-0.037-6.304-1.835-7.638-4.827c-0.253-0.567,0.001-1.231,0.568-1.484c0.566-0.253,1.231,0.001,1.483,0.568
					c0.991,2.222,3.067,3.496,5.695,3.496c0.071,0,0.142,0.007,0.212,0.021l0.513,0.098c0.63,0.082,2.88,0.867,2.663,7.098
					C95.454,46.635,94.958,47.115,94.353,47.115z"/>
			</g>
			<g>
				<path fill="#1D589E" d="M84.839,28.018h-1.675c-1.715,0-3.271-0.653-4.379-1.84c-0.424-0.453-0.4-1.164,0.054-1.587
					c0.452-0.424,1.164-0.4,1.588,0.053c0.679,0.727,1.652,1.127,2.738,1.127h1.675c0.621,0,1.124,0.504,1.124,1.124
					C85.962,27.516,85.459,28.018,84.839,28.018z"/>
			</g>
		</g>
	</g>
	<g>
		<g>
			<path fill="#F68F00" d="M49.003,37.021H31.844c-0.621,0-1.124-0.502-1.124-1.123s0.503-1.123,1.124-1.123H48.9V5.972H4.982
				v28.802h15.525c0.621,0,1.124,0.502,1.124,1.123s-0.503,1.123-1.124,1.123H4.88c-1.183,0-2.145-0.962-2.145-2.145V5.87
				c0-1.183,0.962-2.145,2.145-2.145h44.123c1.183,0,2.145,0.962,2.145,2.145v29.006C51.147,36.059,50.186,37.021,49.003,37.021z"/>
		</g>
		<g>
			<g>
				<path fill="#F68F00" d="M12.028,47.115c-0.605,0-1.102-0.48-1.123-1.085c-0.216-6.231,2.034-7.017,2.729-7.109l0.447-0.087
					c0.07-0.014,0.141-0.021,0.212-0.021c2.629,0,4.704-1.274,5.694-3.496c0.253-0.567,0.917-0.819,1.484-0.569
					c0.566,0.253,0.821,0.917,0.569,1.484c-1.333,2.991-4.183,4.789-7.637,4.827l-0.337,0.065c-0.129,0.1-0.874,0.803-0.927,3.739
					l24.979-0.091c-0.048-2.732-0.693-3.535-0.889-3.715c-4.947-0.12-8.647-3.799-8.647-8.651l0.002-0.38
					c0.004-0.563,0.423-1.036,0.981-1.107c3.367-0.431,5.628-2.979,5.628-6.341l0.002-5.945c0-3.969-2.874-7.199-6.407-7.199h-2.579
					c-0.05,0-0.1-0.003-0.149-0.009h-0.476c-3.97,0-7.2,2.874-7.2,6.406v12.827h5.876c0.621,0,1.124,0.503,1.124,1.124
					c0,0.621-0.503,1.124-1.124,1.124H17.77c-0.187,0-0.37-0.046-0.534-0.135l-0.506-0.273c-0.363-0.196-0.59-0.576-0.59-0.989
					V17.831c0-4.771,4.238-8.654,9.447-8.654h2.377c0.05,0,0.1,0.003,0.149,0.009h0.678c4.771,0,8.654,4.238,8.654,9.446
					l-0.002,5.945c0,4.132-2.663,7.454-6.591,8.388c0.264,3.417,2.97,5.847,6.627,5.847c0.05,0,0.099,0.004,0.148,0.011
					c0.694,0.092,2.945,0.876,2.728,7.108c-0.021,0.604-0.515,1.082-1.119,1.084l-27.204,0.099
					C12.031,47.115,12.029,47.115,12.028,47.115z"/>
			</g>
			<g>
				<path fill="#F68F00" d="M23.217,28.018h-1.675c-0.621,0-1.124-0.502-1.124-1.124c0-0.62,0.503-1.124,1.124-1.124h1.675
					c1.086,0,2.059-0.4,2.738-1.127c0.423-0.453,1.135-0.477,1.588-0.053c0.454,0.424,0.478,1.135,0.054,1.587
					C26.487,27.365,24.932,28.018,23.217,28.018z"/>
			</g>
		</g>
	</g>
</g>
</svg>
