<?xml version="1.0" encoding="utf-8"?>
<!-- Generator: Adobe Illustrator 16.0.0, SVG Export Plug-In . SVG Version: 6.00 Build 0)  -->
<!DOCTYPE svg PUBLIC "-//W3C//DTD SVG 1.1//EN" "http://www.w3.org/Graphics/SVG/1.1/DTD/svg11.dtd">
<svg version="1.1" xmlns="http://www.w3.org/2000/svg" xmlns:xlink="http://www.w3.org/1999/xlink" x="0px" y="0px" width="451px"
	 height="48.5px" viewBox="0 0 451 48.5" enable-background="new 0 0 451 48.5" xml:space="preserve">
<g id="Layer_1">
</g>
<g id="Layer_2">
</g>
<g id="Layer_3">
</g>
<g id="Layer_4">
</g>
<g id="Layer_5">
	<g>
		<g>
			<path fill="#1D589E" d="M101.5,37.021H86.18c-0.621,0-1.124-0.503-1.124-1.124s0.503-1.124,1.124-1.124h15.218V5.972H57.48
				v28.802h17.67c0.621,0,1.124,0.503,1.124,1.124s-0.503,1.124-1.124,1.124H57.378c-1.183,0-2.145-0.962-2.145-2.145V5.87
				c0-1.183,0.962-2.145,2.145-2.145H101.5c1.183,0,2.145,0.962,2.145,2.145v29.006C103.646,36.059,102.683,37.021,101.5,37.021z"/>
		</g>
		<g>
			<g>
				<path fill="#1D589E" d="M94.353,47.115c-0.001,0-0.002,0-0.004,0l-27.204-0.099c-0.604-0.002-1.098-0.481-1.119-1.084
					c-0.217-6.232,2.034-7.017,2.729-7.109c0.049-0.006,0.098-0.01,0.147-0.01c3.656,0,6.36-2.427,6.626-5.848
					c-3.928-0.934-6.59-4.256-6.59-8.387l-0.003-5.945c0-5.208,3.882-9.446,8.654-9.446h0.677c0.049-0.006,0.099-0.01,0.149-0.01
					h2.378c5.209,0,9.447,3.882,9.447,8.654v13.677c0,0.413-0.227,0.792-0.59,0.989l-0.506,0.273
					c-0.164,0.088-0.347,0.135-0.534,0.135h-6.494c-0.621,0-1.124-0.503-1.124-1.124s0.503-1.124,1.124-1.124h5.877V17.831
					c0-3.533-3.23-6.407-7.2-6.407h-0.477c-0.049,0.006-0.099,0.01-0.149,0.01H77.59c-3.533,0-6.407,3.229-6.407,7.199l0.003,5.945
					c0,3.361,2.262,5.91,5.628,6.341c0.559,0.071,0.978,0.545,0.981,1.108l0.002,0.373c0,4.858-3.7,8.538-8.647,8.657
					c-0.196,0.181-0.841,0.983-0.89,3.716l24.979,0.091c-0.053-2.955-0.806-3.649-0.928-3.741l-0.333-0.063
					c-3.454-0.037-6.305-1.835-7.639-4.828c-0.253-0.567,0.001-1.231,0.568-1.483c0.566-0.253,1.231,0.001,1.483,0.568
					c0.991,2.222,3.067,3.496,5.695,3.496c0.071,0,0.142,0.007,0.212,0.021l0.513,0.099c0.63,0.082,2.88,0.867,2.663,7.098
					C95.454,46.635,94.958,47.115,94.353,47.115z"/>
			</g>
			<g>
				<path fill="#1D589E" d="M84.839,28.018h-1.675c-1.715,0-3.27-0.653-4.379-1.84c-0.424-0.453-0.4-1.164,0.054-1.588
					c0.452-0.424,1.164-0.4,1.588,0.054c0.679,0.727,1.652,1.127,2.738,1.127h1.675c0.621,0,1.124,0.503,1.124,1.124
					S85.459,28.018,84.839,28.018z"/>
			</g>
		</g>
	</g>
	<g>
		<g>
			<path fill="#F68F00" d="M49.003,37.021H31.844c-0.621,0-1.124-0.503-1.124-1.124s0.503-1.124,1.124-1.124H48.9V5.972H4.982
				v28.802h15.525c0.621,0,1.124,0.503,1.124,1.124s-0.503,1.124-1.124,1.124H4.88c-1.183,0-2.145-0.962-2.145-2.145V5.87
				c0-1.183,0.962-2.145,2.145-2.145h44.123c1.183,0,2.145,0.962,2.145,2.145v29.006C51.147,36.059,50.186,37.021,49.003,37.021z"/>
		</g>
		<g>
			<g>
				<path fill="#F68F00" d="M12.028,47.115c-0.605,0-1.102-0.479-1.123-1.084c-0.216-6.232,2.034-7.017,2.729-7.109l0.447-0.088
					c0.07-0.014,0.141-0.021,0.212-0.021c2.629,0,4.704-1.274,5.694-3.496c0.253-0.567,0.917-0.819,1.484-0.569
					c0.566,0.253,0.821,0.917,0.569,1.484c-1.333,2.991-4.183,4.79-7.637,4.828l-0.337,0.065c-0.129,0.1-0.874,0.803-0.927,3.739
					l24.979-0.091c-0.048-2.732-0.693-3.535-0.889-3.716c-4.947-0.12-8.647-3.798-8.647-8.651l0.002-0.38
					c0.004-0.562,0.423-1.036,0.981-1.107c3.367-0.431,5.628-2.979,5.628-6.341l0.002-5.945c0-3.969-2.874-7.199-6.407-7.199h-2.579
					c-0.05,0-0.1-0.003-0.149-0.01h-0.476c-3.97,0-7.2,2.874-7.2,6.407v12.827h5.876c0.621,0,1.124,0.503,1.124,1.124
					s-0.503,1.124-1.124,1.124H17.77c-0.187,0-0.37-0.046-0.534-0.135l-0.506-0.273c-0.363-0.196-0.59-0.576-0.59-0.989V17.831
					c0-4.771,4.238-8.654,9.447-8.654h2.377c0.05,0,0.1,0.003,0.149,0.01h0.678c4.771,0,8.654,4.237,8.654,9.446l-0.002,5.945
					c0,4.132-2.663,7.454-6.591,8.388c0.264,3.417,2.97,5.847,6.628,5.847c0.049,0,0.099,0.003,0.148,0.01
					c0.694,0.092,2.945,0.877,2.728,7.109c-0.021,0.604-0.515,1.082-1.119,1.084l-27.204,0.099
					C12.031,47.115,12.029,47.115,12.028,47.115z"/>
			</g>
			<g>
				<path fill="#F68F00" d="M23.217,28.018h-1.675c-0.621,0-1.124-0.503-1.124-1.124s0.503-1.124,1.124-1.124h1.675
					c1.086,0,2.059-0.4,2.738-1.127c0.423-0.454,1.135-0.478,1.588-0.054c0.454,0.424,0.478,1.135,0.054,1.588
					C26.487,27.365,24.932,28.018,23.217,28.018z"/>
			</g>
		</g>
	</g>
	<g>
		<path fill="#28539E" stroke="#28539E" stroke-width="0.3" stroke-miterlimit="10" d="M131.312,15.331c2.749,0,4.469,1,5.479,2.574
			l1.98-1.724c-1.47-1.95-3.823-3.099-7.248-3.099c-6.398,0-10.379,4.349-11.025,10.497c-0.646,6.149,2.297,10.248,8.82,10.248
			c3.349,0,5.994-1.149,7.874-3.099l-1.596-1.7c-1.34,1.575-3.267,2.549-6.017,2.549c-5.373,0-7.1-3.549-6.632-7.998
			C123.422,19.055,126.013,15.331,131.312,15.331z"/>
		<path fill="#28539E" stroke="#28539E" stroke-width="0.3" stroke-miterlimit="10" d="M151.198,13.082
			c-6.199,0-9.93,4.349-10.576,10.497c-0.646,6.149,2.172,10.248,8.396,10.248c6.148,0,9.928-4.099,10.574-10.248
			C160.241,17.406,157.446,13.082,151.198,13.082z M157.143,23.579c-0.468,4.449-2.815,7.998-7.864,7.998
			c-5.023,0-6.675-3.549-6.207-7.998c0.475-4.523,2.866-8.248,7.915-8.248C156.061,15.331,157.605,19.18,157.143,23.579z"/>
		<polygon fill="#28539E" stroke="#28539E" stroke-width="0.3" stroke-miterlimit="10" points="161.907,26.578 170.28,26.578 
			170.516,24.329 162.143,24.329 		"/>
		<path fill="#28539E" stroke="#28539E" stroke-width="0.3" stroke-miterlimit="10" d="M183.798,13.082
			c-6.199,0-9.93,4.349-10.576,10.497c-0.646,6.149,2.172,10.248,8.396,10.248c6.148,0,9.928-4.099,10.574-10.248
			C192.84,17.406,190.046,13.082,183.798,13.082z M189.743,23.579c-0.468,4.449-2.815,7.998-7.864,7.998
			c-5.023,0-6.675-3.549-6.207-7.998c0.475-4.523,2.866-8.248,7.915-8.248C188.66,15.331,190.205,19.18,189.743,23.579z"/>
		<path fill="#28539E" stroke="#28539E" stroke-width="0.3" stroke-miterlimit="10" d="M206.646,13.332h-9.248l-2.127,20.245h2.375
			l0.788-7.498l-0.224-0.25h7.099c4.323,0,6.987-2.749,7.355-6.248C213.046,15.931,210.944,13.332,206.646,13.332z M210.212,19.58
			c-0.242,2.3-1.77,3.999-4.668,3.999h-7.099l0.276-0.25l0.788-7.498l-0.224-0.25h7.123
			C209.283,15.581,210.465,17.181,210.212,19.58z"/>
		<polygon fill="#28539E" stroke="#28539E" stroke-width="0.3" stroke-miterlimit="10" points="223.319,33.577 225.694,33.577 
			226.561,25.329 226.337,25.078 237.384,25.078 237.62,22.829 226.573,22.829 226.85,22.58 227.559,15.831 227.335,15.581 
			239.582,15.581 239.818,13.332 225.446,13.332 		"/>
		<path fill="#28539E" stroke="#28539E" stroke-width="0.3" stroke-miterlimit="10" d="M253.765,24.554l0.005-0.05
			c2.284-0.574,4.317-2.549,4.596-5.198c0.42-3.999-2.472-5.974-6.171-5.974h-8.873l-2.128,20.245h2.375l0.851-8.098l-0.224-0.25
			h4.799c2.674,0,4.1,0.95,4.856,3.024l1.965,5.323h2.674l-2.36-6.324C255.602,25.854,254.672,24.954,253.765,24.554z
			 M250.906,22.979h-6.474l0.276-0.25l0.726-6.898l-0.224-0.25h6.748c2.475,0,4.241,1.025,3.958,3.724
			C255.69,21.455,253.83,22.979,250.906,22.979z"/>
		<polygon fill="#28539E" stroke="#28539E" stroke-width="0.3" stroke-miterlimit="10" points="261.494,33.577 263.869,33.577 
			265.997,13.332 263.622,13.332 		"/>
		<polygon fill="#28539E" stroke="#28539E" stroke-width="0.3" stroke-miterlimit="10" points="268.994,33.577 283.866,33.577 
			284.102,31.327 271.355,31.327 271.631,31.078 272.288,24.829 272.064,24.579 283.611,24.579 283.847,22.329 272.3,22.329 
			272.577,22.079 273.234,15.831 273.01,15.581 285.757,15.581 285.994,13.332 271.122,13.332 		"/>
		<polygon fill="#28539E" stroke="#28539E" stroke-width="0.3" stroke-miterlimit="10" points="303.033,29.602 302.983,29.602 
			301.748,27.328 292.671,13.332 290.497,13.332 288.369,33.577 290.744,33.577 292.454,17.306 292.503,17.306 293.803,19.68 
			302.816,33.577 304.99,33.577 307.118,13.332 304.744,13.332 		"/>
		<path fill="#28539E" stroke="#28539E" stroke-width="0.3" stroke-miterlimit="10" d="M319.769,13.332h-7.648l-2.128,20.245h7.773
			c7.823,0,9.727-5.274,10.236-10.123C328.509,18.63,327.692,13.332,319.769,13.332z M325.553,23.454
			c-0.438,4.174-1.777,7.873-7.801,7.873h-5.398l0.276-0.25l1.603-15.247l-0.224-0.25h5.273
			C325.381,15.581,325.99,19.305,325.553,23.454z"/>
		<polygon fill="#28539E" stroke="#28539E" stroke-width="0.3" stroke-miterlimit="10" points="339.318,33.577 341.693,33.577 
			342.559,25.329 342.335,25.078 353.382,25.078 353.619,22.829 342.572,22.829 342.848,22.58 343.558,15.831 343.334,15.581 
			355.582,15.581 355.818,13.332 341.446,13.332 		"/>
		<polygon fill="#28539E" stroke="#28539E" stroke-width="0.3" stroke-miterlimit="10" points="357.318,33.577 359.693,33.577 
			361.821,13.332 359.446,13.332 		"/>
		<polygon fill="#28539E" stroke="#28539E" stroke-width="0.3" stroke-miterlimit="10" points="379.481,29.602 379.431,29.602 
			378.196,27.328 369.12,13.332 366.945,13.332 364.817,33.577 367.192,33.577 368.902,17.306 368.952,17.306 370.251,19.68 
			379.264,33.577 381.438,33.577 383.566,13.332 381.192,13.332 		"/>
		<path fill="#28539E" stroke="#28539E" stroke-width="0.3" stroke-miterlimit="10" d="M396.218,13.332h-7.648l-2.128,20.245h7.773
			c7.823,0,9.727-5.274,10.236-10.123C404.958,18.63,404.141,13.332,396.218,13.332z M402.002,23.454
			c-0.438,4.174-1.777,7.873-7.801,7.873h-5.398l0.276-0.25l1.603-15.247l-0.224-0.25h5.273
			C401.831,15.581,402.439,19.305,402.002,23.454z"/>
		<polygon fill="#28539E" stroke="#28539E" stroke-width="0.3" stroke-miterlimit="10" points="407.517,33.577 422.389,33.577 
			422.625,31.327 409.878,31.327 410.155,31.078 410.811,24.829 410.587,24.579 422.134,24.579 422.371,22.329 410.824,22.329 
			411.1,22.079 411.757,15.831 411.534,15.581 424.281,15.581 424.517,13.332 409.645,13.332 		"/>
		<path fill="#28539E" stroke="#28539E" stroke-width="0.3" stroke-miterlimit="10" d="M441.827,27.253
			c-0.527-1.399-1.457-2.299-2.364-2.699l0.005-0.05c2.284-0.574,4.317-2.549,4.596-5.198c0.42-3.999-2.472-5.974-6.171-5.974
			h-8.873l-2.128,20.245h2.375l0.851-8.098l-0.224-0.25h4.799c2.674,0,4.1,0.95,4.856,3.024l1.965,5.323h2.674L441.827,27.253z
			 M436.603,22.979h-6.474l0.276-0.25l0.726-6.898l-0.224-0.25h6.748c2.475,0,4.241,1.025,3.958,3.724
			C441.387,21.455,439.527,22.979,436.603,22.979z"/>
	</g>
</g>
</svg>
