<?xml version="1.0" encoding="utf-8"?>
<!-- Generator: Adobe Illustrator 16.0.0, SVG Export Plug-In . SVG Version: 6.00 Build 0)  -->
<!DOCTYPE svg PUBLIC "-//W3C//DTD SVG 1.1//EN" "http://www.w3.org/Graphics/SVG/1.1/DTD/svg11.dtd">
<svg version="1.1" id="Layer_2" xmlns="http://www.w3.org/2000/svg" xmlns:xlink="http://www.w3.org/1999/xlink" x="0px" y="0px"
	 width="25px" height="24px" viewBox="0 0 25 24" enable-background="new 0 0 25 24" xml:space="preserve">
<path fill="#28549E" d="M24.676,16.996c-0.147-0.19-0.373-0.304-0.613-0.309L13.155,16.49V8.083
	c1.795-0.286,3.173-1.841,3.173-3.716c0-2.078-1.69-3.769-3.768-3.769c-2.078,0-3.769,1.691-3.769,3.769
	c0,1.734,1.18,3.194,2.777,3.631v8.463l-3.705-0.067c-0.031-0.798-0.596-2.177-1.65-2.177c-1.028,0-1.59,1.312-1.647,2.118
	l-3.759-0.068c-0.22-0.004-0.418,0.078-0.57,0.227C0.086,16.642,0,16.846,0,17.059v6.147C0,23.645,0.355,24,0.793,24h16.408
	c2.328,0,3.976-0.498,5.188-1.568c1.121-0.991,1.871-2.46,2.43-4.764C24.876,17.434,24.823,17.187,24.676,16.996z M10.379,4.367
	c0-1.203,0.979-2.182,2.182-2.182c1.203,0,2.182,0.979,2.182,2.182s-0.979,2.182-2.182,2.182C11.357,6.548,10.379,5.57,10.379,4.367
	z M6.214,16.159c0.025,0.073,0.044,0.144,0.055,0.206L6.16,16.363C6.171,16.301,6.19,16.23,6.214,16.159z M17.201,22.414H7.536
	H1.586v-4.546l3.883,0.07c0.224,0.114,0.477,0.18,0.745,0.18c0.247,0,0.48-0.056,0.691-0.153l16.11,0.292
	C22.06,21.378,20.538,22.414,17.201,22.414z"/>
</svg>
