<?xml version="1.0" encoding="utf-8"?>
<!-- Generator: Adobe Illustrator 16.0.0, SVG Export Plug-In . SVG Version: 6.00 Build 0)  -->
<!DOCTYPE svg PUBLIC "-//W3C//DTD SVG 1.1//EN" "http://www.w3.org/Graphics/SVG/1.1/DTD/svg11.dtd">
<svg version="1.1" xmlns="http://www.w3.org/2000/svg" xmlns:xlink="http://www.w3.org/1999/xlink" x="0px" y="0px" width="28px"
	 height="28px" viewBox="0 0 28 28" enable-background="new 0 0 28 28" xml:space="preserve">
<g id="Layer_1">
</g>
<g id="Layer_2">
</g>
<g id="Layer_3">
</g>
<g id="Layer_4">
</g>
<g id="Layer_5">
	<path fill="#1D589E" d="M14.024,1.482c6.89,0,12.495,5.605,12.495,12.495c0,6.889-5.605,12.494-12.495,12.494
		S1.529,20.866,1.529,13.977C1.529,7.087,7.134,1.482,14.024,1.482 M14.024-0.018c-7.729,0-13.995,6.266-13.995,13.995
		s6.266,13.994,13.995,13.994c7.729,0,13.995-6.265,13.995-13.994S21.752-0.018,14.024-0.018L14.024-0.018z"/>
	<path fill="#1D589E" d="M21.473,14.792c-0.128-0.128-0.29-0.19-0.457-0.214l-3.312-3.312c-0.313-0.312-0.821-0.312-1.135,0
		c-0.313,0.313-0.313,0.821,0,1.135l2.274,2.274h-6.269c-2.622,0-4.754-2.133-4.754-4.755c0-0.443-0.359-0.802-0.802-0.802
		S6.215,9.478,6.215,9.92c0,3.506,2.853,6.359,6.359,6.359h6.276l-2.281,2.28c-0.313,0.313-0.313,0.821,0,1.134
		c0.157,0.157,0.362,0.235,0.567,0.235s0.411-0.079,0.567-0.235l3.769-3.768C21.786,15.613,21.786,15.105,21.473,14.792z"/>
</g>
</svg>
