<?xml version="1.0" encoding="utf-8"?>
<!-- Generator: Adobe Illustrator 16.0.0, SVG Export Plug-In . SVG Version: 6.00 Build 0)  -->
<!DOCTYPE svg PUBLIC "-//W3C//DTD SVG 1.1//EN" "http://www.w3.org/Graphics/SVG/1.1/DTD/svg11.dtd">
<svg version="1.1" id="Layer_2" xmlns="http://www.w3.org/2000/svg" xmlns:xlink="http://www.w3.org/1999/xlink" x="0px" y="0px"
	 width="26px" height="28px" viewBox="0 0 26 28" enable-background="new 0 0 26 28" xml:space="preserve">
<path fill="#1D599E" d="M8.833,22.091h-3.2c-0.379,0-0.687,0.308-0.687,0.688s0.308,0.688,0.687,0.688h3.2
	c0.655,0,1.061,0.693,1.061,1.335v0.176v0.412v0.175c0,0.69-0.646,1.062-1.254,1.062H8.107c-0.047,0-0.093,0.004-0.137,0.013
	c-0.045-0.009-0.091-0.013-0.138-0.013h-0.61c-0.591,0-1.022-0.383-1.098-0.976c-0.045-0.354-0.353-0.607-0.703-0.596
	c-2.468-0.701-4.048-2.673-4.048-5.088v-0.623v-1.375v-4.122H0v4.122v1.375v0.623c0,2.948,1.939,5.447,4.875,6.357
	C5.207,27.332,6.112,28,7.222,28h0.61c0.047,0,0.093-0.005,0.138-0.014C8.015,27.995,8.061,28,8.107,28H8.64
	c1.474,0,2.628-1.07,2.628-2.436v-0.175v-0.412v-0.176C11.268,23.282,10.199,22.091,8.833,22.091z"/>
<path fill="#6D7B8A" d="M22.789,9.108c0.013-0.053,0.021-0.107,0.021-0.164c0-4.748-4.417-8.611-9.848-8.611
	c-5.396,0-9.79,3.814-9.846,8.521c-1.727,0.855-2.888,2.625-2.888,4.717c0,2.954,2.313,5.268,5.268,5.268
	c0.348,0,0.632-0.26,0.678-0.595h1.486c0.701,0,1.271-0.57,1.271-1.271v-6.665c0-0.701-0.57-1.271-1.271-1.271H6.184V8.991
	c0-0.379-0.308-0.687-0.687-0.687c-0.336,0-0.664,0.032-0.98,0.089c0.06-0.671,0.224-1.318,0.485-1.927
	c0.13,0.017,0.265-0.003,0.391-0.066c0.015-0.007,1.524-0.748,4.13-1.106c2.403-0.329,6.26-0.391,10.987,1.189
	c0.072,0.024,0.146,0.036,0.218,0.036c0.071,0,0.14-0.011,0.206-0.032c0.259,0.612,0.423,1.263,0.479,1.938
	c-0.512-0.167-1.058-0.257-1.624-0.257c-0.38,0-0.687,0.308-0.687,0.687v0.046h-1.615c-0.701,0-1.271,0.57-1.271,1.271v6.664
	c0,0.702,0.571,1.272,1.271,1.272h1.624c0.045,0.335,0.33,0.595,0.678,0.595c2.904,0,5.268-2.363,5.268-5.268
	C25.056,11.644,24.158,10.061,22.789,9.108z M7.558,10.411v6.458H6.184v-6.458H7.558z M4.81,9.736
	c-0.087,0.172-0.138,0.366-0.138,0.572v6.665c0,0.148,0.027,0.29,0.074,0.422c-1.812-0.341-3.142-1.897-3.142-3.823
	C1.604,11.624,2.965,10.052,4.81,9.736L4.81,9.736z M6.164,4.631c1.545-1.772,4.018-2.923,6.799-2.923
	c2.903,0,5.47,1.254,6.997,3.161C13.347,2.902,8.434,3.898,6.164,4.631z M17.589,10.273h1.512v6.458h-1.512V10.273z M20.475,17.264
	v-0.429V10.17V9.604c1.796,0.335,3.206,1.953,3.206,3.83C23.681,15.311,22.271,16.928,20.475,17.264z"/>
</svg>
